<mxfile host="www.draw.io" modified="2019-11-25T13:18:59.198Z" agent="Mozilla/5.0 (Macintosh; Intel Mac OS X 10_14_6) AppleWebKit/537.36 (KHTML, like Gecko) Chrome/78.0.3904.108 Safari/537.36" etag="xO-Bm3QUqUNhGtlKusjw" version="12.3.0" type="github" pages="1">
  <diagram name="Page-1" id="e7e014a7-5840-1c2e-5031-d8a46d1fe8dd">
    <mxGraphModel dx="1186" dy="715" grid="1" gridSize="10" guides="1" tooltips="1" connect="1" arrows="1" fold="1" page="1" pageScale="1" pageWidth="1169" pageHeight="826" background="#ffffff" math="0" shadow="0">
      <root>
        <mxCell id="0"/>
        <mxCell id="1" parent="0"/>
        <mxCell id="2" value="eviction.py" style="swimlane;whiteSpace=wrap" parent="1" vertex="1">
          <mxGeometry x="40" y="128" width="281" height="570" as="geometry"/>
        </mxCell>
        <mxCell id="5" value="" style="ellipse;shape=startState;fillColor=#000000;strokeColor=#ff0000;" parent="2" vertex="1">
          <mxGeometry x="100" y="40" width="30" height="30" as="geometry"/>
        </mxCell>
        <mxCell id="6" value="" style="edgeStyle=elbowEdgeStyle;elbow=horizontal;verticalAlign=bottom;endArrow=open;endSize=8;strokeColor=#FF0000;endFill=1;rounded=0" parent="2" source="5" target="7" edge="1">
          <mxGeometry x="100" y="40" as="geometry">
            <mxPoint x="115" y="110" as="targetPoint"/>
          </mxGeometry>
        </mxCell>
        <mxCell id="7" value="eviction.py" style="" parent="2" vertex="1">
          <mxGeometry x="60" y="110" width="110" height="50" as="geometry"/>
        </mxCell>
        <mxCell id="8" value="Load Configuration" style="" parent="2" vertex="1">
          <mxGeometry x="60" y="220" width="110" height="50" as="geometry"/>
        </mxCell>
        <mxCell id="9" value="" style="endArrow=open;strokeColor=#FF0000;endFill=1;rounded=0" parent="2" source="7" target="8" edge="1">
          <mxGeometry relative="1" as="geometry"/>
        </mxCell>
        <mxCell id="10" value="Apply Policy" style="" parent="2" vertex="1">
          <mxGeometry x="60" y="325" width="110" height="50" as="geometry"/>
        </mxCell>
        <mxCell id="11" value="" style="endArrow=open;strokeColor=#FF0000;endFill=1;rounded=0" parent="2" source="8" target="10" edge="1">
          <mxGeometry relative="1" as="geometry"/>
        </mxCell>
        <mxCell id="oaagkvBM30d2irfokbAs-44" value="" style="edgeStyle=orthogonalEdgeStyle;rounded=0;orthogonalLoop=1;jettySize=auto;html=1;" edge="1" parent="2" source="oaagkvBM30d2irfokbAs-42" target="8">
          <mxGeometry relative="1" as="geometry"/>
        </mxCell>
        <mxCell id="oaagkvBM30d2irfokbAs-42" value="eviction.yml" style="shape=document;whiteSpace=wrap;html=1;boundedLbl=1;" vertex="1" parent="2">
          <mxGeometry x="197" y="226" width="73" height="37" as="geometry"/>
        </mxCell>
        <mxCell id="oaagkvBM30d2irfokbAs-49" value="&lt;div&gt;apply(dataset&lt;/div&gt;&lt;div&gt;,table&lt;/div&gt;&lt;div&gt;,dry_run)&lt;/div&gt;" style="shape=parallelogram;html=1;strokeWidth=0;perimeter=parallelogramPerimeter;whiteSpace=wrap;rounded=1;arcSize=12;size=0.23;" vertex="1" parent="2">
          <mxGeometry x="150" y="372" width="116" height="48" as="geometry"/>
        </mxCell>
        <mxCell id="3" value="Eviction Policy" style="swimlane;whiteSpace=wrap" parent="1" vertex="1">
          <mxGeometry x="321" y="128" width="560" height="570" as="geometry"/>
        </mxCell>
        <mxCell id="15" value="Eviction Policy" style="" parent="3" vertex="1">
          <mxGeometry x="209" y="42" width="110" height="50" as="geometry"/>
        </mxCell>
        <mxCell id="16" value="delete_and_evict" style="" parent="3" vertex="1">
          <mxGeometry x="341" y="122" width="100" height="28" as="geometry"/>
        </mxCell>
        <mxCell id="17" value="" style="endArrow=open;strokeColor=#FF0000;endFill=1;rounded=0;entryX=0.595;entryY=-0.036;entryDx=0;entryDy=0;entryPerimeter=0;" parent="3" target="oaagkvBM30d2irfokbAs-55" edge="1">
          <mxGeometry relative="1" as="geometry">
            <mxPoint x="269" y="92" as="sourcePoint"/>
          </mxGeometry>
        </mxCell>
        <mxCell id="18" value="command queue" style="" parent="3" vertex="1">
          <mxGeometry x="20" y="325" width="110" height="50" as="geometry"/>
        </mxCell>
        <mxCell id="31" value="critical&#xa;section" style="shape=note;whiteSpace=wrap;size=17" parent="3" vertex="1">
          <mxGeometry x="105" y="490" width="100" height="50" as="geometry"/>
        </mxCell>
        <mxCell id="32" value="" style="endArrow=none;strokeColor=#FF0000;endFill=0;rounded=0;dashed=1" parent="3" source="18" target="31" edge="1">
          <mxGeometry relative="1" as="geometry"/>
        </mxCell>
        <mxCell id="oaagkvBM30d2irfokbAs-50" value="delete_no_eviction" style="" vertex="1" parent="3">
          <mxGeometry x="226" y="122" width="109" height="28" as="geometry"/>
        </mxCell>
        <mxCell id="oaagkvBM30d2irfokbAs-51" value="keep_everything" style="" vertex="1" parent="3">
          <mxGeometry x="120" y="122" width="100" height="28" as="geometry"/>
        </mxCell>
        <mxCell id="oaagkvBM30d2irfokbAs-52" value="keep_latest_only" style="" vertex="1" parent="3">
          <mxGeometry x="10" y="122" width="100" height="28" as="geometry"/>
        </mxCell>
        <mxCell id="oaagkvBM30d2irfokbAs-55" value="restore_from_gcs" style="" vertex="1" parent="3">
          <mxGeometry x="446.5" y="122" width="100" height="28" as="geometry"/>
        </mxCell>
        <mxCell id="oaagkvBM30d2irfokbAs-60" value="" style="endArrow=open;strokeColor=#FF0000;endFill=1;rounded=0;exitX=0.5;exitY=1;exitDx=0;exitDy=0;" edge="1" parent="3" source="15">
          <mxGeometry relative="1" as="geometry">
            <mxPoint x="227" y="91.99314487632512" as="sourcePoint"/>
            <mxPoint x="389" y="122" as="targetPoint"/>
          </mxGeometry>
        </mxCell>
        <mxCell id="oaagkvBM30d2irfokbAs-61" value="" style="endArrow=open;strokeColor=#FF0000;endFill=1;rounded=0;entryX=0.5;entryY=0;entryDx=0;entryDy=0;" edge="1" parent="3" target="oaagkvBM30d2irfokbAs-50">
          <mxGeometry relative="1" as="geometry">
            <mxPoint x="269" y="92" as="sourcePoint"/>
            <mxPoint x="399" y="132" as="targetPoint"/>
          </mxGeometry>
        </mxCell>
        <mxCell id="oaagkvBM30d2irfokbAs-70" value="" style="endArrow=open;strokeColor=#FF0000;endFill=1;rounded=0;" edge="1" parent="3">
          <mxGeometry relative="1" as="geometry">
            <mxPoint x="495" y="150" as="sourcePoint"/>
            <mxPoint x="495" y="272" as="targetPoint"/>
          </mxGeometry>
        </mxCell>
        <mxCell id="4" value="init.py" style="swimlane;whiteSpace=wrap" parent="1" vertex="1">
          <mxGeometry x="880" y="128" width="280" height="570" as="geometry"/>
        </mxCell>
        <mxCell id="38" value="" style="ellipse;shape=endState;fillColor=#000000;strokeColor=#ff0000" parent="4" vertex="1">
          <mxGeometry x="130" y="500" width="30" height="30" as="geometry"/>
        </mxCell>
        <mxCell id="39" value="" style="endArrow=open;strokeColor=#FF0000;endFill=1;rounded=0" parent="4" target="38" edge="1">
          <mxGeometry relative="1" as="geometry">
            <mxPoint x="145" y="455" as="sourcePoint"/>
          </mxGeometry>
        </mxCell>
        <mxCell id="oaagkvBM30d2irfokbAs-69" value="" style="edgeStyle=orthogonalEdgeStyle;rounded=0;orthogonalLoop=1;jettySize=auto;html=1;" edge="1" parent="4" source="oaagkvBM30d2irfokbAs-64" target="oaagkvBM30d2irfokbAs-68">
          <mxGeometry relative="1" as="geometry"/>
        </mxCell>
        <mxCell id="oaagkvBM30d2irfokbAs-64" value="init.py" style="" vertex="1" parent="4">
          <mxGeometry x="85" y="42" width="110" height="50" as="geometry"/>
        </mxCell>
        <mxCell id="oaagkvBM30d2irfokbAs-68" value="delete table" style="" vertex="1" parent="4">
          <mxGeometry x="85" y="122" width="110" height="38" as="geometry"/>
        </mxCell>
        <mxCell id="20" value="" style="endArrow=open;strokeColor=#FF0000;endFill=1;rounded=0;entryX=0;entryY=0.5;entryDx=0;entryDy=0;" parent="1" target="15" edge="1">
          <mxGeometry relative="1" as="geometry">
            <mxPoint x="211" y="472" as="sourcePoint"/>
            <mxPoint x="530" y="189" as="targetPoint"/>
            <Array as="points">
              <mxPoint x="326.5" y="472"/>
              <mxPoint x="327" y="195"/>
            </Array>
          </mxGeometry>
        </mxCell>
        <mxCell id="oaagkvBM30d2irfokbAs-54" value="&lt;span style=&quot;color: rgba(0 , 0 , 0 , 0) ; font-family: monospace ; font-size: 0px&quot;&gt;%3CmxGraphModel%3E%3Croot%3E%3CmxCell%20id%3D%220%22%2F%3E%3CmxCell%20id%3D%221%22%20parent%3D%220%22%2F%3E%3CmxCell%20id%3D%222%22%20value%3D%22%22%20style%3D%22endArrow%3Dopen%3BstrokeColor%3D%23FF0000%3BendFill%3D1%3Brounded%3D0%22%20edge%3D%221%22%20parent%3D%221%22%3E%3CmxGeometry%20relative%3D%221%22%20as%3D%22geometry%22%3E%3CmxPoint%20x%3D%22702.0389610389611%22%20y%3D%22268%22%20as%3D%22sourcePoint%22%2F%3E%3CmxPoint%20x%3D%22450.5%22%20y%3D%22479.9158200290276%22%20as%3D%22targetPoint%22%2F%3E%3CArray%20as%3D%22points%22%3E%3CmxPoint%20x%3D%22740%22%20y%3D%22490%22%2F%3E%3C%2FArray%3E%3C%2FmxGeometry%3E%3C%2FmxCell%3E%3C%2Froot%3E%3C%2FmxGraphModel%3E&lt;/span&gt;&lt;span style=&quot;color: rgba(0 , 0 , 0 , 0) ; font-family: monospace ; font-size: 0px&quot;&gt;%3CmxGraphModel%3E%3Croot%3E%3CmxCell%20id%3D%220%22%2F%3E%3CmxCell%20id%3D%221%22%20parent%3D%220%22%2F%3E%3CmxCell%20id%3D%222%22%20value%3D%22%22%20style%3D%22endArrow%3Dopen%3BstrokeColor%3D%23FF0000%3BendFill%3D1%3Brounded%3D0%22%20edge%3D%221%22%20parent%3D%221%22%3E%3CmxGeometry%20relative%3D%221%22%20as%3D%22geometry%22%3E%3CmxPoint%20x%3D%22702.0389610389611%22%20y%3D%22268%22%20as%3D%22sourcePoint%22%2F%3E%3CmxPoint%20x%3D%22450.5%22%20y%3D%22479.9158200290276%22%20as%3D%22targetPoint%22%2F%3E%3CArray%20as%3D%22points%22%3E%3CmxPoint%20x%3D%22740%22%20y%3D%22490%22%2F%3E%3C%2FArray%3E%3C%2FmxGeometry%3E%3C%2FmxCell%3E%3C%2Froot%3E%3C%2FmxGraphModel%3E&lt;/span&gt;" style="text;html=1;align=center;verticalAlign=middle;resizable=0;points=[];;autosize=1;" vertex="1" parent="1">
          <mxGeometry x="898" y="371" width="20" height="20" as="geometry"/>
        </mxCell>
        <mxCell id="oaagkvBM30d2irfokbAs-62" value="" style="endArrow=open;strokeColor=#FF0000;endFill=1;rounded=0;entryX=0.5;entryY=0;entryDx=0;entryDy=0;" edge="1" parent="1" target="oaagkvBM30d2irfokbAs-51">
          <mxGeometry relative="1" as="geometry">
            <mxPoint x="590" y="220" as="sourcePoint"/>
            <mxPoint x="611.5" y="260" as="targetPoint"/>
          </mxGeometry>
        </mxCell>
        <mxCell id="oaagkvBM30d2irfokbAs-63" value="" style="endArrow=open;strokeColor=#FF0000;endFill=1;rounded=0;entryX=0.5;entryY=0;entryDx=0;entryDy=0;" edge="1" parent="1" target="oaagkvBM30d2irfokbAs-52">
          <mxGeometry relative="1" as="geometry">
            <mxPoint x="590" y="220" as="sourcePoint"/>
            <mxPoint x="501" y="260" as="targetPoint"/>
          </mxGeometry>
        </mxCell>
      </root>
    </mxGraphModel>
  </diagram>
</mxfile>
